<?xml version="1.0" standalone="no"?>
<svg xmlns="http://www.w3.org/2000/svg" width="500" height="500"><defs><clipPath id="clip-path-dot-color"><path d="M 28 124v 12h 6a 6 6, 0, 0, 0, 0 -12" transform="rotate(-90,34,130)"/><path d="M 28 136v 12h 12v -6a 6 6, 0, 0, 0, -6 -6" transform="rotate(180,34,142)"/><circle cx="34" cy="166" r="6" transform="rotate(0,34,166)"/><path d="M 28 184v 12h 6a 6 6, 0, 0, 0, 0 -12" transform="rotate(180,34,190)"/><path d="M 28 208v 12h 6a 6 6, 0, 0, 0, 0 -12" transform="rotate(-90,34,214)"/><path d="M 28 220v 12h 6a 6 6, 0, 0, 0, 0 -12" transform="rotate(90,34,226)"/><circle cx="34" cy="262" r="6" transform="rotate(0,34,262)"/><circle cx="34" cy="334" r="6" transform="rotate(0,34,334)"/><path d="M 28 364v 12h 6a 6 6, 0, 0, 0, 0 -12" transform="rotate(180,34,370)"/><path d="M 40 136v 12h 6a 6 6, 0, 0, 0, 0 -12" transform="rotate(0,46,142)"/><rect x="40" y="184" width="12" height="12" transform="rotate(0,46,190)"/><path d="M 40 232v 12h 12v -6a 6 6, 0, 0, 0, -6 -6" transform="rotate(-90,46,238)"/><path d="M 40 244v 12h 6a 6 6, 0, 0, 0, 0 -12" transform="rotate(90,46,250)"/><path d="M 40 268v 12h 6a 6 6, 0, 0, 0, 0 -12" transform="rotate(-90,46,274)"/><path d="M 40 280v 12h 12v -6a 6 6, 0, 0, 0, -6 -6" transform="rotate(180,46,286)"/><path d="M 40 304v 12h 12v -6a 6 6, 0, 0, 0, -6 -6" transform="rotate(-90,46,310)"/><path d="M 40 316v 12h 6a 6 6, 0, 0, 0, 0 -12" transform="rotate(90,46,322)"/><path d="M 40 340v 12h 12v -6a 6 6, 0, 0, 0, -6 -6" transform="rotate(-90,46,346)"/><rect x="40" y="352" width="12" height="12" transform="rotate(0,46,358)"/><rect x="40" y="364" width="12" height="12" transform="rotate(0,46,370)"/><path d="M 52 148v 12h 6a 6 6, 0, 0, 0, 0 -12" transform="rotate(180,58,154)"/><path d="M 52 172v 12h 6a 6 6, 0, 0, 0, 0 -12" transform="rotate(-90,58,178)"/><rect x="52" y="184" width="12" height="12" transform="rotate(0,58,190)"/><path d="M 52 196v 12h 6a 6 6, 0, 0, 0, 0 -12" transform="rotate(90,58,202)"/><path d="M 52 220v 12h 6a 6 6, 0, 0, 0, 0 -12" transform="rotate(-90,58,226)"/><path d="M 52 232v 12h 12v -6a 6 6, 0, 0, 0, -6 -6" transform="rotate(90,58,238)"/><path d="M 52 280v 12h 6a 6 6, 0, 0, 0, 0 -12" transform="rotate(0,58,286)"/><rect x="52" y="304" width="12" height="12" transform="rotate(0,58,310)"/><rect x="52" y="340" width="12" height="12" transform="rotate(0,58,346)"/><path d="M 52 364v 12h 6a 6 6, 0, 0, 0, 0 -12" transform="rotate(0,58,370)"/><path d="M 64 136v 12h 6a 6 6, 0, 0, 0, 0 -12" transform="rotate(-90,70,142)"/><rect x="64" y="148" width="12" height="12" transform="rotate(0,70,154)"/><path d="M 64 160v 12h 6a 6 6, 0, 0, 0, 0 -12" transform="rotate(90,70,166)"/><rect x="64" y="184" width="12" height="12" transform="rotate(0,70,190)"/><circle cx="70" cy="214" r="6" transform="rotate(0,70,214)"/><path d="M 64 244v 12h 12v -6a 6 6, 0, 0, 0, -6 -6" transform="rotate(-90,70,250)"/><rect x="64" y="256" width="12" height="12" transform="rotate(0,70,262)"/><path d="M 64 268v 12h 12v -6a 6 6, 0, 0, 0, -6 -6" transform="rotate(180,70,274)"/><path d="M 64 292v 12h 12v -6a 6 6, 0, 0, 0, -6 -6" transform="rotate(-90,70,298)"/><rect x="64" y="304" width="12" height="12" transform="rotate(0,70,310)"/><rect x="64" y="316" width="12" height="12" transform="rotate(0,70,322)"/><rect x="64" y="328" width="12" height="12" transform="rotate(0,70,334)"/><rect x="64" y="340" width="12" height="12" transform="rotate(0,70,346)"/><path d="M 64 352v 12h 6a 6 6, 0, 0, 0, 0 -12" transform="rotate(90,70,358)"/><path d="M 76 124v 12h 6a 6 6, 0, 0, 0, 0 -12" transform="rotate(180,82,130)"/><path d="M 76 184v 12h 6a 6 6, 0, 0, 0, 0 -12" transform="rotate(0,82,190)"/><path d="M 76 232v 12h 6a 6 6, 0, 0, 0, 0 -12" transform="rotate(-90,82,238)"/><rect x="76" y="244" width="12" height="12" transform="rotate(0,82,250)"/><rect x="76" y="256" width="12" height="12" transform="rotate(0,82,262)"/><path d="M 76 268v 12h 12v -6a 6 6, 0, 0, 0, -6 -6" transform="rotate(90,82,274)"/><path d="M 76 292v 12h 12v -6a 6 6, 0, 0, 0, -6 -6" transform="rotate(0,82,298)"/><rect x="76" y="304" width="12" height="12" transform="rotate(0,82,310)"/><rect x="76" y="316" width="12" height="12" transform="rotate(0,82,322)"/><rect x="76" y="328" width="12" height="12" transform="rotate(0,82,334)"/><rect x="76" y="340" width="12" height="12" transform="rotate(0,82,346)"/><rect x="88" y="124" width="12" height="12" transform="rotate(0,94,130)"/><rect x="88" y="136" width="12" height="12" transform="rotate(0,94,142)"/><rect x="88" y="148" width="12" height="12" transform="rotate(0,94,154)"/><path d="M 88 160v 12h 6a 6 6, 0, 0, 0, 0 -12" transform="rotate(90,94,166)"/><path d="M 88 196v 12h 12v -6a 6 6, 0, 0, 0, -6 -6" transform="rotate(-90,94,202)"/><path d="M 88 208v 12h 6a 6 6, 0, 0, 0, 0 -12" transform="rotate(90,94,214)"/><rect x="88" y="244" width="12" height="12" transform="rotate(0,94,250)"/><circle cx="94" cy="286" r="6" transform="rotate(0,94,286)"/><path d="M 88 328v 12h 12v -6a 6 6, 0, 0, 0, -6 -6" transform="rotate(0,94,334)"/><rect x="88" y="340" width="12" height="12" transform="rotate(0,94,346)"/><rect x="88" y="352" width="12" height="12" transform="rotate(0,94,358)"/><path d="M 88 364v 12h 12v -6a 6 6, 0, 0, 0, -6 -6" transform="rotate(180,94,370)"/><path d="M 100 124v 12h 6a 6 6, 0, 0, 0, 0 -12" transform="rotate(0,106,130)"/><rect x="100" y="148" width="12" height="12" transform="rotate(0,106,154)"/><circle cx="106" cy="178" r="6" transform="rotate(0,106,178)"/><rect x="100" y="196" width="12" height="12" transform="rotate(0,106,202)"/><circle cx="106" cy="226" r="6" transform="rotate(0,106,226)"/><path d="M 100 244v 12h 6a 6 6, 0, 0, 0, 0 -12" transform="rotate(0,106,250)"/><path d="M 100 268v 12h 6a 6 6, 0, 0, 0, 0 -12" transform="rotate(180,106,274)"/><circle cx="106" cy="298" r="6" transform="rotate(0,106,298)"/><circle cx="106" cy="322" r="6" transform="rotate(0,106,322)"/><path d="M 100 340v 12h 6a 6 6, 0, 0, 0, 0 -12" transform="rotate(0,106,346)"/><rect x="100" y="364" width="12" height="12" transform="rotate(0,106,370)"/><path d="M 112 136v 12h 12v -6a 6 6, 0, 0, 0, -6 -6" transform="rotate(-90,118,142)"/><rect x="112" y="148" width="12" height="12" transform="rotate(0,118,154)"/><rect x="112" y="196" width="12" height="12" transform="rotate(0,118,202)"/><path d="M 112 208v 12h 12v -6a 6 6, 0, 0, 0, -6 -6" transform="rotate(180,118,214)"/><rect x="112" y="268" width="12" height="12" transform="rotate(0,118,274)"/><path d="M 112 280v 12h 6a 6 6, 0, 0, 0, 0 -12" transform="rotate(90,118,286)"/><circle cx="118" cy="334" r="6" transform="rotate(0,118,334)"/><rect x="112" y="364" width="12" height="12" transform="rotate(0,118,370)"/><path d="M 124 40v 12h 12v -6a 6 6, 0, 0, 0, -6 -6" transform="rotate(-90,130,46)"/><rect x="124" y="52" width="12" height="12" transform="rotate(0,130,58)"/><rect x="124" y="64" width="12" height="12" transform="rotate(0,130,70)"/><rect x="124" y="76" width="12" height="12" transform="rotate(0,130,82)"/><rect x="124" y="88" width="12" height="12" transform="rotate(0,130,94)"/><rect x="124" y="100" width="12" height="12" transform="rotate(0,130,106)"/><path d="M 124 112v 12h 12v -6a 6 6, 0, 0, 0, -6 -6" transform="rotate(180,130,118)"/><rect x="124" y="136" width="12" height="12" transform="rotate(0,130,142)"/><rect x="124" y="148" width="12" height="12" transform="rotate(0,130,154)"/><path d="M 124 172v 12h 6a 6 6, 0, 0, 0, 0 -12" transform="rotate(180,130,178)"/><rect x="124" y="196" width="12" height="12" transform="rotate(0,130,202)"/><path d="M 124 208v 12h 12v -6a 6 6, 0, 0, 0, -6 -6" transform="rotate(90,130,214)"/><path d="M 124 232v 12h 6a 6 6, 0, 0, 0, 0 -12" transform="rotate(-90,130,238)"/><rect x="124" y="244" width="12" height="12" transform="rotate(0,130,250)"/><rect x="124" y="256" width="12" height="12" transform="rotate(0,130,262)"/><rect x="124" y="268" width="12" height="12" transform="rotate(0,130,274)"/><circle cx="130" cy="298" r="6" transform="rotate(0,130,298)"/><circle cx="130" cy="346" r="6" transform="rotate(0,130,346)"/><path d="M 124 364v 12h 6a 6 6, 0, 0, 0, 0 -12" transform="rotate(0,130,370)"/><path d="M 124 400v 12h 12v -6a 6 6, 0, 0, 0, -6 -6" transform="rotate(-90,130,406)"/><path d="M 124 412v 12h 12v -6a 6 6, 0, 0, 0, -6 -6" transform="rotate(180,130,418)"/><circle cx="130" cy="466" r="6" transform="rotate(0,130,466)"/><rect x="136" y="40" width="12" height="12" transform="rotate(0,142,46)"/><rect x="136" y="52" width="12" height="12" transform="rotate(0,142,58)"/><rect x="136" y="64" width="12" height="12" transform="rotate(0,142,70)"/><rect x="136" y="76" width="12" height="12" transform="rotate(0,142,82)"/><rect x="136" y="112" width="12" height="12" transform="rotate(0,142,118)"/><rect x="136" y="124" width="12" height="12" transform="rotate(0,142,130)"/><rect x="136" y="136" width="12" height="12" transform="rotate(0,142,142)"/><rect x="136" y="148" width="12" height="12" transform="rotate(0,142,154)"/><rect x="136" y="160" width="12" height="12" transform="rotate(0,142,166)"/><path d="M 136 172v 12h 12v -6a 6 6, 0, 0, 0, -6 -6" transform="rotate(90,142,178)"/><rect x="136" y="196" width="12" height="12" transform="rotate(0,142,202)"/><rect x="136" y="244" width="12" height="12" transform="rotate(0,142,250)"/><rect x="136" y="256" width="12" height="12" transform="rotate(0,142,262)"/><rect x="136" y="268" width="12" height="12" transform="rotate(0,142,274)"/><path d="M 136 328v 12h 6a 6 6, 0, 0, 0, 0 -12" transform="rotate(180,142,334)"/><path d="M 136 352v 12h 6a 6 6, 0, 0, 0, 0 -12" transform="rotate(180,142,358)"/><path d="M 136 388v 12h 12v -6a 6 6, 0, 0, 0, -6 -6" transform="rotate(-90,142,394)"/><rect x="136" y="400" width="12" height="12" transform="rotate(0,142,406)"/><rect x="136" y="412" width="12" height="12" transform="rotate(0,142,418)"/><path d="M 136 436v 12h 6a 6 6, 0, 0, 0, 0 -12" transform="rotate(180,142,442)"/><rect x="148" y="40" width="12" height="12" transform="rotate(0,154,46)"/><rect x="148" y="52" width="12" height="12" transform="rotate(0,154,58)"/><rect x="148" y="64" width="12" height="12" transform="rotate(0,154,70)"/><rect x="148" y="76" width="12" height="12" transform="rotate(0,154,82)"/><path d="M 148 100v 12h 6a 6 6, 0, 0, 0, 0 -12" transform="rotate(-90,154,106)"/><path d="M 148 112v 12h 12v -6a 6 6, 0, 0, 0, -6 -6" transform="rotate(90,154,118)"/><rect x="148" y="160" width="12" height="12" transform="rotate(0,154,166)"/><path d="M 148 184v 12h 6a 6 6, 0, 0, 0, 0 -12" transform="rotate(-90,154,190)"/><rect x="148" y="196" width="12" height="12" transform="rotate(0,154,202)"/><path d="M 148 208v 12h 6a 6 6, 0, 0, 0, 0 -12" transform="rotate(90,154,214)"/><path d="M 148 244v 12h 6a 6 6, 0, 0, 0, 0 -12" transform="rotate(0,154,250)"/><rect x="148" y="268" width="12" height="12" transform="rotate(0,154,274)"/><rect x="148" y="280" width="12" height="12" transform="rotate(0,154,286)"/><path d="M 148 292v 12h 12v -6a 6 6, 0, 0, 0, -6 -6" transform="rotate(180,154,298)"/><path d="M 148 328v 12h 12v -6a 6 6, 0, 0, 0, -6 -6" transform="rotate(0,154,334)"/><rect x="148" y="340" width="12" height="12" transform="rotate(0,154,346)"/><rect x="148" y="352" width="12" height="12" transform="rotate(0,154,358)"/><path d="M 148 364v 12h 6a 6 6, 0, 0, 0, 0 -12" transform="rotate(90,154,370)"/><rect x="148" y="388" width="12" height="12" transform="rotate(0,154,394)"/><rect x="148" y="412" width="12" height="12" transform="rotate(0,154,418)"/><path d="M 148 436v 12h 6a 6 6, 0, 0, 0, 0 -12" transform="rotate(0,154,442)"/><circle cx="154" cy="466" r="6" transform="rotate(0,154,466)"/><rect x="160" y="40" width="12" height="12" transform="rotate(0,166,46)"/><path d="M 160 52v 12h 12v -6a 6 6, 0, 0, 0, -6 -6" transform="rotate(90,166,58)"/><path d="M 160 76v 12h 6a 6 6, 0, 0, 0, 0 -12" transform="rotate(0,166,82)"/><rect x="160" y="160" width="12" height="12" transform="rotate(0,166,166)"/><rect x="160" y="196" width="12" height="12" transform="rotate(0,166,202)"/><circle cx="166" cy="226" r="6" transform="rotate(0,166,226)"/><path d="M 160 256v 12h 6a 6 6, 0, 0, 0, 0 -12" transform="rotate(-90,166,262)"/><rect x="160" y="268" width="12" height="12" transform="rotate(0,166,274)"/><rect x="160" y="280" width="12" height="12" transform="rotate(0,166,286)"/><rect x="160" y="292" width="12" height="12" transform="rotate(0,166,298)"/><rect x="160" y="304" width="12" height="12" transform="rotate(0,166,310)"/><path d="M 160 316v 12h 12v -6a 6 6, 0, 0, 0, -6 -6" transform="rotate(180,166,322)"/><rect x="160" y="340" width="12" height="12" transform="rotate(0,166,346)"/><rect x="160" y="352" width="12" height="12" transform="rotate(0,166,358)"/><rect x="160" y="388" width="12" height="12" transform="rotate(0,166,394)"/><rect x="160" y="400" width="12" height="12" transform="rotate(0,166,406)"/><rect x="160" y="412" width="12" height="12" transform="rotate(0,166,418)"/><path d="M 160 448v 12h 6a 6 6, 0, 0, 0, 0 -12" transform="rotate(180,166,454)"/><rect x="172" y="40" width="12" height="12" transform="rotate(0,178,46)"/><circle cx="178" cy="106" r="6" transform="rotate(0,178,106)"/><path d="M 172 136v 12h 6a 6 6, 0, 0, 0, 0 -12" transform="rotate(-90,178,142)"/><rect x="172" y="148" width="12" height="12" transform="rotate(0,178,154)"/><path d="M 172 160v 12h 12v -6a 6 6, 0, 0, 0, -6 -6" transform="rotate(90,178,166)"/><path d="M 172 196v 12h 6a 6 6, 0, 0, 0, 0 -12" transform="rotate(0,178,202)"/><path d="M 172 232v 12h 12v -6a 6 6, 0, 0, 0, -6 -6" transform="rotate(-90,178,238)"/><path d="M 172 244v 12h 12v -6a 6 6, 0, 0, 0, -6 -6" transform="rotate(180,178,250)"/><rect x="172" y="268" width="12" height="12" transform="rotate(0,178,274)"/><rect x="172" y="292" width="12" height="12" transform="rotate(0,178,298)"/><path d="M 172 316v 12h 12v -6a 6 6, 0, 0, 0, -6 -6" transform="rotate(0,178,322)"/><rect x="172" y="328" width="12" height="12" transform="rotate(0,178,334)"/><rect x="172" y="340" width="12" height="12" transform="rotate(0,178,346)"/><path d="M 172 352v 12h 12v -6a 6 6, 0, 0, 0, -6 -6" transform="rotate(90,178,358)"/><path d="M 172 376v 12h 12v -6a 6 6, 0, 0, 0, -6 -6" transform="rotate(-90,178,382)"/><path d="M 172 388v 12h 12v -6a 6 6, 0, 0, 0, -6 -6" transform="rotate(90,178,394)"/><path d="M 172 412v 12h 12v -6a 6 6, 0, 0, 0, -6 -6" transform="rotate(0,178,418)"/><rect x="172" y="424" width="12" height="12" transform="rotate(0,178,430)"/><rect x="172" y="436" width="12" height="12" transform="rotate(0,178,442)"/><rect x="172" y="448" width="12" height="12" transform="rotate(0,178,454)"/><path d="M 172 460v 12h 6a 6 6, 0, 0, 0, 0 -12" transform="rotate(90,178,466)"/><path d="M 184 28v 12h 12v -6a 6 6, 0, 0, 0, -6 -6" transform="rotate(-90,190,34)"/><rect x="184" y="40" width="12" height="12" transform="rotate(0,190,46)"/><path d="M 184 76v 12h 6a 6 6, 0, 0, 0, 0 -12" transform="rotate(180,190,82)"/><path d="M 184 112v 12h 6a 6 6, 0, 0, 0, 0 -12" transform="rotate(-90,190,118)"/><path d="M 184 124v 12h 12v -6a 6 6, 0, 0, 0, -6 -6" transform="rotate(180,190,130)"/><path d="M 184 208v 12h 12v -6a 6 6, 0, 0, 0, -6 -6" transform="rotate(-90,190,214)"/><rect x="184" y="220" width="12" height="12" transform="rotate(0,190,226)"/><rect x="184" y="232" width="12" height="12" transform="rotate(0,190,238)"/><rect x="184" y="244" width="12" height="12" transform="rotate(0,190,250)"/><rect x="184" y="256" width="12" height="12" transform="rotate(0,190,262)"/><rect x="184" y="268" width="12" height="12" transform="rotate(0,190,274)"/><rect x="184" y="280" width="12" height="12" transform="rotate(0,190,286)"/><rect x="184" y="292" width="12" height="12" transform="rotate(0,190,298)"/><path d="M 184 304v 12h 6a 6 6, 0, 0, 0, 0 -12" transform="rotate(90,190,310)"/><rect x="184" y="376" width="12" height="12" transform="rotate(0,190,382)"/><path d="M 184 400v 12h 6a 6 6, 0, 0, 0, 0 -12" transform="rotate(180,190,406)"/><rect x="184" y="424" width="12" height="12" transform="rotate(0,190,430)"/><path d="M 184 436v 12h 12v -6a 6 6, 0, 0, 0, -6 -6" transform="rotate(90,190,442)"/><rect x="196" y="28" width="12" height="12" transform="rotate(0,202,34)"/><path d="M 196 40v 12h 12v -6a 6 6, 0, 0, 0, -6 -6" transform="rotate(90,202,46)"/><path d="M 196 64v 12h 6a 6 6, 0, 0, 0, 0 -12" transform="rotate(-90,202,70)"/><rect x="196" y="76" width="12" height="12" transform="rotate(0,202,82)"/><rect x="196" y="88" width="12" height="12" transform="rotate(0,202,94)"/><path d="M 196 100v 12h 6a 6 6, 0, 0, 0, 0 -12" transform="rotate(90,202,106)"/><rect x="196" y="124" width="12" height="12" transform="rotate(0,202,130)"/><path d="M 196 160v 12h 12v -6a 6 6, 0, 0, 0, -6 -6" transform="rotate(-90,202,166)"/><rect x="196" y="172" width="12" height="12" transform="rotate(0,202,178)"/><rect x="196" y="184" width="12" height="12" transform="rotate(0,202,190)"/><rect x="196" y="196" width="12" height="12" transform="rotate(0,202,202)"/><rect x="196" y="208" width="12" height="12" transform="rotate(0,202,214)"/><rect x="196" y="220" width="12" height="12" transform="rotate(0,202,226)"/><path d="M 196 232v 12h 12v -6a 6 6, 0, 0, 0, -6 -6" transform="rotate(90,202,238)"/><rect x="196" y="256" width="12" height="12" transform="rotate(0,202,262)"/><rect x="196" y="268" width="12" height="12" transform="rotate(0,202,274)"/><rect x="196" y="280" width="12" height="12" transform="rotate(0,202,286)"/><circle cx="202" cy="322" r="6" transform="rotate(0,202,322)"/><path d="M 196 352v 12h 6a 6 6, 0, 0, 0, 0 -12" transform="rotate(180,202,358)"/><rect x="196" y="376" width="12" height="12" transform="rotate(0,202,382)"/><rect x="196" y="400" width="12" height="12" transform="rotate(0,202,406)"/><path d="M 196 424v 12h 6a 6 6, 0, 0, 0, 0 -12" transform="rotate(0,202,430)"/><path d="M 196 448v 12h 6a 6 6, 0, 0, 0, 0 -12" transform="rotate(-90,202,454)"/><path d="M 196 460v 12h 6a 6 6, 0, 0, 0, 0 -12" transform="rotate(90,202,466)"/><path d="M 208 28v 12h 6a 6 6, 0, 0, 0, 0 -12" transform="rotate(0,214,34)"/><circle cx="214" cy="58" r="6" transform="rotate(0,214,58)"/><path d="M 208 76v 12h 6a 6 6, 0, 0, 0, 0 -12" transform="rotate(0,214,82)"/><path d="M 208 124v 12h 6a 6 6, 0, 0, 0, 0 -12" transform="rotate(0,214,130)"/><path d="M 208 148v 12h 6a 6 6, 0, 0, 0, 0 -12" transform="rotate(-90,214,154)"/><rect x="208" y="160" width="12" height="12" transform="rotate(0,214,166)"/><path d="M 208 184v 12h 6a 6 6, 0, 0, 0, 0 -12" transform="rotate(0,214,190)"/><path d="M 208 244v 12h 12v -6a 6 6, 0, 0, 0, -6 -6" transform="rotate(-90,214,250)"/><path d="M 208 256v 12h 12v -6a 6 6, 0, 0, 0, -6 -6" transform="rotate(90,214,262)"/><rect x="208" y="280" width="12" height="12" transform="rotate(0,214,286)"/><path d="M 208 292v 12h 6a 6 6, 0, 0, 0, 0 -12" transform="rotate(90,214,298)"/><path d="M 208 340v 12h 12v -6a 6 6, 0, 0, 0, -6 -6" transform="rotate(-90,214,346)"/><rect x="208" y="352" width="12" height="12" transform="rotate(0,214,358)"/><rect x="208" y="364" width="12" height="12" transform="rotate(0,214,370)"/><rect x="208" y="376" width="12" height="12" transform="rotate(0,214,382)"/><path d="M 208 400v 12h 6a 6 6, 0, 0, 0, 0 -12" transform="rotate(0,214,406)"/><path d="M 220 88v 12h 6a 6 6, 0, 0, 0, 0 -12" transform="rotate(-90,226,94)"/><rect x="220" y="100" width="12" height="12" transform="rotate(0,226,106)"/><path d="M 220 112v 12h 6a 6 6, 0, 0, 0, 0 -12" transform="rotate(90,226,118)"/><path d="M 220 136v 12h 6a 6 6, 0, 0, 0, 0 -12" transform="rotate(180,226,142)"/><path d="M 220 160v 12h 6a 6 6, 0, 0, 0, 0 -12" transform="rotate(0,226,166)"/><circle cx="226" cy="202" r="6" transform="rotate(0,226,202)"/><path d="M 220 232v 12h 12v -6a 6 6, 0, 0, 0, -6 -6" transform="rotate(-90,226,238)"/><rect x="220" y="244" width="12" height="12" transform="rotate(0,226,250)"/><rect x="220" y="280" width="12" height="12" transform="rotate(0,226,286)"/><path d="M 220 328v 12h 6a 6 6, 0, 0, 0, 0 -12" transform="rotate(-90,226,334)"/><rect x="220" y="340" width="12" height="12" transform="rotate(0,226,346)"/><path d="M 220 352v 12h 12v -6a 6 6, 0, 0, 0, -6 -6" transform="rotate(90,226,358)"/><rect x="220" y="376" width="12" height="12" transform="rotate(0,226,382)"/><path d="M 220 388v 12h 12v -6a 6 6, 0, 0, 0, -6 -6" transform="rotate(180,226,394)"/><circle cx="226" cy="418" r="6" transform="rotate(0,226,418)"/><path d="M 220 436v 12h 6a 6 6, 0, 0, 0, 0 -12" transform="rotate(-90,226,442)"/><path d="M 220 448v 12h 6a 6 6, 0, 0, 0, 0 -12" transform="rotate(90,226,454)"/><path d="M 232 28v 12h 6a 6 6, 0, 0, 0, 0 -12" transform="rotate(-90,238,34)"/><rect x="232" y="40" width="12" height="12" transform="rotate(0,238,46)"/><rect x="232" y="52" width="12" height="12" transform="rotate(0,238,58)"/><path d="M 232 64v 12h 6a 6 6, 0, 0, 0, 0 -12" transform="rotate(90,238,70)"/><rect x="232" y="136" width="12" height="12" transform="rotate(0,238,142)"/><path d="M 232 172v 12h 12v -6a 6 6, 0, 0, 0, -6 -6" transform="rotate(-90,238,178)"/><path d="M 232 184v 12h 6a 6 6, 0, 0, 0, 0 -12" transform="rotate(90,238,190)"/><path d="M 232 220v 12h 12v -6a 6 6, 0, 0, 0, -6 -6" transform="rotate(-90,238,226)"/><rect x="232" y="232" width="12" height="12" transform="rotate(0,238,238)"/><rect x="232" y="244" width="12" height="12" transform="rotate(0,238,250)"/><path d="M 232 268v 12h 12v -6a 6 6, 0, 0, 0, -6 -6" transform="rotate(-90,238,274)"/><rect x="232" y="280" width="12" height="12" transform="rotate(0,238,286)"/><path d="M 232 292v 12h 12v -6a 6 6, 0, 0, 0, -6 -6" transform="rotate(180,238,298)"/><circle cx="238" cy="322" r="6" transform="rotate(0,238,322)"/><rect x="232" y="340" width="12" height="12" transform="rotate(0,238,346)"/><path d="M 232 364v 12h 12v -6a 6 6, 0, 0, 0, -6 -6" transform="rotate(-90,238,370)"/><rect x="232" y="376" width="12" height="12" transform="rotate(0,238,382)"/><rect x="232" y="388" width="12" height="12" transform="rotate(0,238,394)"/><circle cx="238" cy="430" r="6" transform="rotate(0,238,430)"/><path d="M 244 76v 12h 6a 6 6, 0, 0, 0, 0 -12" transform="rotate(-90,250,82)"/><rect x="244" y="88" width="12" height="12" transform="rotate(0,250,94)"/><rect x="244" y="100" width="12" height="12" transform="rotate(0,250,106)"/><rect x="244" y="112" width="12" height="12" transform="rotate(0,250,118)"/><rect x="244" y="124" width="12" height="12" transform="rotate(0,250,130)"/><rect x="244" y="136" width="12" height="12" transform="rotate(0,250,142)"/><path d="M 244 172v 12h 6a 6 6, 0, 0, 0, 0 -12" transform="rotate(0,250,178)"/><path d="M 244 196v 12h 6a 6 6, 0, 0, 0, 0 -12" transform="rotate(-90,250,202)"/><rect x="244" y="208" width="12" height="12" transform="rotate(0,250,214)"/><path d="M 244 220v 12h 12v -6a 6 6, 0, 0, 0, -6 -6" transform="rotate(90,250,226)"/><rect x="244" y="244" width="12" height="12" transform="rotate(0,250,250)"/><rect x="244" y="256" width="12" height="12" transform="rotate(0,250,262)"/><rect x="244" y="268" width="12" height="12" transform="rotate(0,250,274)"/><rect x="244" y="280" width="12" height="12" transform="rotate(0,250,286)"/><rect x="244" y="292" width="12" height="12" transform="rotate(0,250,298)"/><path d="M 244 328v 12h 6a 6 6, 0, 0, 0, 0 -12" transform="rotate(-90,250,334)"/><rect x="244" y="340" width="12" height="12" transform="rotate(0,250,346)"/><rect x="244" y="352" width="12" height="12" transform="rotate(0,250,358)"/><rect x="244" y="364" width="12" height="12" transform="rotate(0,250,370)"/><rect x="244" y="388" width="12" height="12" transform="rotate(0,250,394)"/><path d="M 244 400v 12h 12v -6a 6 6, 0, 0, 0, -6 -6" transform="rotate(180,250,406)"/><path d="M 244 436v 12h 6a 6 6, 0, 0, 0, 0 -12" transform="rotate(-90,250,442)"/><rect x="244" y="448" width="12" height="12" transform="rotate(0,250,454)"/><path d="M 244 460v 12h 12v -6a 6 6, 0, 0, 0, -6 -6" transform="rotate(180,250,466)"/><path d="M 256 40v 12h 12v -6a 6 6, 0, 0, 0, -6 -6" transform="rotate(-90,262,46)"/><rect x="256" y="52" width="12" height="12" transform="rotate(0,262,58)"/><path d="M 256 64v 12h 6a 6 6, 0, 0, 0, 0 -12" transform="rotate(90,262,70)"/><path d="M 256 88v 12h 6a 6 6, 0, 0, 0, 0 -12" transform="rotate(0,262,94)"/><path d="M 256 136v 12h 6a 6 6, 0, 0, 0, 0 -12" transform="rotate(0,262,142)"/><circle cx="262" cy="166" r="6" transform="rotate(0,262,166)"/><path d="M 256 184v 12h 6a 6 6, 0, 0, 0, 0 -12" transform="rotate(180,262,190)"/><rect x="256" y="208" width="12" height="12" transform="rotate(0,262,214)"/><path d="M 256 232v 12h 12v -6a 6 6, 0, 0, 0, -6 -6" transform="rotate(-90,262,238)"/><rect x="256" y="244" width="12" height="12" transform="rotate(0,262,250)"/><rect x="256" y="256" width="12" height="12" transform="rotate(0,262,262)"/><rect x="256" y="268" width="12" height="12" transform="rotate(0,262,274)"/><rect x="256" y="280" width="12" height="12" transform="rotate(0,262,286)"/><rect x="256" y="292" width="12" height="12" transform="rotate(0,262,298)"/><path d="M 256 316v 12h 6a 6 6, 0, 0, 0, 0 -12" transform="rotate(180,262,322)"/><rect x="256" y="352" width="12" height="12" transform="rotate(0,262,358)"/><rect x="256" y="364" width="12" height="12" transform="rotate(0,262,370)"/><rect x="256" y="376" width="12" height="12" transform="rotate(0,262,382)"/><rect x="256" y="388" width="12" height="12" transform="rotate(0,262,394)"/><rect x="256" y="400" width="12" height="12" transform="rotate(0,262,406)"/><path d="M 256 412v 12h 12v -6a 6 6, 0, 0, 0, -6 -6" transform="rotate(180,262,418)"/><rect x="256" y="460" width="12" height="12" transform="rotate(0,262,466)"/><path d="M 268 28v 12h 6a 6 6, 0, 0, 0, 0 -12" transform="rotate(-90,274,34)"/><rect x="268" y="40" width="12" height="12" transform="rotate(0,274,46)"/><path d="M 268 52v 12h 12v -6a 6 6, 0, 0, 0, -6 -6" transform="rotate(90,274,58)"/><path d="M 268 76v 12h 6a 6 6, 0, 0, 0, 0 -12" transform="rotate(180,274,82)"/><circle cx="274" cy="106" r="6" transform="rotate(0,274,106)"/><circle cx="274" cy="154" r="6" transform="rotate(0,274,154)"/><path d="M 268 172v 12h 6a 6 6, 0, 0, 0, 0 -12" transform="rotate(-90,274,178)"/><rect x="268" y="184" width="12" height="12" transform="rotate(0,274,190)"/><rect x="268" y="196" width="12" height="12" transform="rotate(0,274,202)"/><path d="M 268 208v 12h 12v -6a 6 6, 0, 0, 0, -6 -6" transform="rotate(90,274,214)"/><path d="M 268 232v 12h 6a 6 6, 0, 0, 0, 0 -12" transform="rotate(0,274,238)"/><rect x="268" y="256" width="12" height="12" transform="rotate(0,274,262)"/><path d="M 268 292v 12h 6a 6 6, 0, 0, 0, 0 -12" transform="rotate(0,274,298)"/><path d="M 268 316v 12h 12v -6a 6 6, 0, 0, 0, -6 -6" transform="rotate(0,274,322)"/><rect x="268" y="328" width="12" height="12" transform="rotate(0,274,334)"/><rect x="268" y="340" width="12" height="12" transform="rotate(0,274,346)"/><path d="M 268 352v 12h 12v -6a 6 6, 0, 0, 0, -6 -6" transform="rotate(90,274,358)"/><path d="M 268 376v 12h 12v -6a 6 6, 0, 0, 0, -6 -6" transform="rotate(0,274,382)"/><rect x="268" y="388" width="12" height="12" transform="rotate(0,274,394)"/><rect x="268" y="400" width="12" height="12" transform="rotate(0,274,406)"/><rect x="268" y="412" width="12" height="12" transform="rotate(0,274,418)"/><rect x="268" y="424" width="12" height="12" transform="rotate(0,274,430)"/><path d="M 268 436v 12h 12v -6a 6 6, 0, 0, 0, -6 -6" transform="rotate(180,274,442)"/><path d="M 268 460v 12h 6a 6 6, 0, 0, 0, 0 -12" transform="rotate(0,274,466)"/><path d="M 280 76v 12h 6a 6 6, 0, 0, 0, 0 -12" transform="rotate(0,286,82)"/><path d="M 280 160v 12h 6a 6 6, 0, 0, 0, 0 -12" transform="rotate(180,286,166)"/><rect x="280" y="184" width="12" height="12" transform="rotate(0,286,190)"/><path d="M 280 244v 12h 6a 6 6, 0, 0, 0, 0 -12" transform="rotate(-90,286,250)"/><rect x="280" y="256" width="12" height="12" transform="rotate(0,286,262)"/><path d="M 280 268v 12h 12v -6a 6 6, 0, 0, 0, -6 -6" transform="rotate(180,286,274)"/><circle cx="286" cy="310" r="6" transform="rotate(0,286,310)"/><path d="M 280 400v 12h 6a 6 6, 0, 0, 0, 0 -12" transform="rotate(0,286,406)"/><rect x="280" y="436" width="12" height="12" transform="rotate(0,286,442)"/><path d="M 292 28v 12h 6a 6 6, 0, 0, 0, 0 -12" transform="rotate(-90,298,34)"/><path d="M 292 40v 12h 12v -6a 6 6, 0, 0, 0, -6 -6" transform="rotate(180,298,46)"/><circle cx="298" cy="70" r="6" transform="rotate(0,298,70)"/><path d="M 292 88v 12h 6a 6 6, 0, 0, 0, 0 -12" transform="rotate(-90,298,94)"/><path d="M 292 100v 12h 6a 6 6, 0, 0, 0, 0 -12" transform="rotate(90,298,106)"/><circle cx="298" cy="142" r="6" transform="rotate(0,298,142)"/><path d="M 292 160v 12h 12v -6a 6 6, 0, 0, 0, -6 -6" transform="rotate(0,298,166)"/><rect x="292" y="172" width="12" height="12" transform="rotate(0,298,178)"/><rect x="292" y="184" width="12" height="12" transform="rotate(0,298,190)"/><path d="M 292 196v 12h 6a 6 6, 0, 0, 0, 0 -12" transform="rotate(90,298,202)"/><circle cx="298" cy="238" r="6" transform="rotate(0,298,238)"/><path d="M 292 256v 12h 12v -6a 6 6, 0, 0, 0, -6 -6" transform="rotate(0,298,262)"/><rect x="292" y="268" width="12" height="12" transform="rotate(0,298,274)"/><path d="M 292 280v 12h 12v -6a 6 6, 0, 0, 0, -6 -6" transform="rotate(180,298,286)"/><circle cx="298" cy="322" r="6" transform="rotate(0,298,322)"/><circle cx="298" cy="358" r="6" transform="rotate(0,298,358)"/><path d="M 292 388v 12h 6a 6 6, 0, 0, 0, 0 -12" transform="rotate(180,298,394)"/><path d="M 292 436v 12h 12v -6a 6 6, 0, 0, 0, -6 -6" transform="rotate(0,298,442)"/><rect x="292" y="448" width="12" height="12" transform="rotate(0,298,454)"/><path d="M 292 460v 12h 6a 6 6, 0, 0, 0, 0 -12" transform="rotate(90,298,466)"/><rect x="304" y="40" width="12" height="12" transform="rotate(0,310,46)"/><path d="M 304 52v 12h 12v -6a 6 6, 0, 0, 0, -6 -6" transform="rotate(180,310,58)"/><circle cx="310" cy="154" r="6" transform="rotate(0,310,154)"/><rect x="304" y="172" width="12" height="12" transform="rotate(0,310,178)"/><circle cx="310" cy="214" r="6" transform="rotate(0,310,214)"/><path d="M 304 280v 12h 12v -6a 6 6, 0, 0, 0, -6 -6" transform="rotate(0,310,286)"/><path d="M 304 292v 12h 12v -6a 6 6, 0, 0, 0, -6 -6" transform="rotate(180,310,298)"/><circle cx="310" cy="346" r="6" transform="rotate(0,310,346)"/><path d="M 304 376v 12h 6a 6 6, 0, 0, 0, 0 -12" transform="rotate(-90,310,382)"/><rect x="304" y="388" width="12" height="12" transform="rotate(0,310,394)"/><path d="M 304 400v 12h 6a 6 6, 0, 0, 0, 0 -12" transform="rotate(90,310,406)"/><path d="M 304 448v 12h 6a 6 6, 0, 0, 0, 0 -12" transform="rotate(0,310,454)"/><path d="M 316 40v 12h 12v -6a 6 6, 0, 0, 0, -6 -6" transform="rotate(0,322,46)"/><path d="M 316 52v 12h 12v -6a 6 6, 0, 0, 0, -6 -6" transform="rotate(90,322,58)"/><circle cx="322" cy="82" r="6" transform="rotate(0,322,82)"/><path d="M 316 100v 12h 6a 6 6, 0, 0, 0, 0 -12" transform="rotate(-90,322,106)"/><rect x="316" y="112" width="12" height="12" transform="rotate(0,322,118)"/><rect x="316" y="124" width="12" height="12" transform="rotate(0,322,130)"/><path d="M 316 136v 12h 6a 6 6, 0, 0, 0, 0 -12" transform="rotate(90,322,142)"/><path d="M 316 172v 12h 6a 6 6, 0, 0, 0, 0 -12" transform="rotate(0,322,178)"/><path d="M 316 220v 12h 6a 6 6, 0, 0, 0, 0 -12" transform="rotate(-90,322,226)"/><path d="M 316 232v 12h 12v -6a 6 6, 0, 0, 0, -6 -6" transform="rotate(180,322,238)"/><path d="M 316 292v 12h 6a 6 6, 0, 0, 0, 0 -12" transform="rotate(0,322,298)"/><rect x="316" y="388" width="12" height="12" transform="rotate(0,322,394)"/><circle cx="322" cy="442" r="6" transform="rotate(0,322,442)"/><circle cx="322" cy="466" r="6" transform="rotate(0,322,466)"/><path d="M 328 28v 12h 6a 6 6, 0, 0, 0, 0 -12" transform="rotate(180,334,34)"/><circle cx="334" cy="70" r="6" transform="rotate(0,334,70)"/><path d="M 328 112v 12h 12v -6a 6 6, 0, 0, 0, -6 -6" transform="rotate(0,334,118)"/><rect x="328" y="124" width="12" height="12" transform="rotate(0,334,130)"/><circle cx="334" cy="166" r="6" transform="rotate(0,334,166)"/><path d="M 328 184v 12h 12v -6a 6 6, 0, 0, 0, -6 -6" transform="rotate(-90,334,190)"/><path d="M 328 196v 12h 12v -6a 6 6, 0, 0, 0, -6 -6" transform="rotate(180,334,202)"/><path d="M 328 232v 12h 12v -6a 6 6, 0, 0, 0, -6 -6" transform="rotate(0,334,238)"/><path d="M 328 244v 12h 12v -6a 6 6, 0, 0, 0, -6 -6" transform="rotate(180,334,250)"/><path d="M 328 280v 12h 6a 6 6, 0, 0, 0, 0 -12" transform="rotate(180,334,286)"/><circle cx="334" cy="310" r="6" transform="rotate(0,334,310)"/><path d="M 328 340v 12h 12v -6a 6 6, 0, 0, 0, -6 -6" transform="rotate(-90,334,346)"/><rect x="328" y="352" width="12" height="12" transform="rotate(0,334,358)"/><rect x="328" y="364" width="12" height="12" transform="rotate(0,334,370)"/><rect x="328" y="376" width="12" height="12" transform="rotate(0,334,382)"/><rect x="328" y="388" width="12" height="12" transform="rotate(0,334,394)"/><rect x="340" y="28" width="12" height="12" transform="rotate(0,346,34)"/><path d="M 340 52v 12h 6a 6 6, 0, 0, 0, 0 -12" transform="rotate(180,346,58)"/><path d="M 340 88v 12h 6a 6 6, 0, 0, 0, 0 -12" transform="rotate(-90,346,94)"/><path d="M 340 100v 12h 6a 6 6, 0, 0, 0, 0 -12" transform="rotate(90,346,106)"/><rect x="340" y="124" width="12" height="12" transform="rotate(0,346,130)"/><rect x="340" y="136" width="12" height="12" transform="rotate(0,346,142)"/><path d="M 340 148v 12h 6a 6 6, 0, 0, 0, 0 -12" transform="rotate(90,346,154)"/><rect x="340" y="184" width="12" height="12" transform="rotate(0,346,190)"/><rect x="340" y="196" width="12" height="12" transform="rotate(0,346,202)"/><path d="M 340 244v 12h 12v -6a 6 6, 0, 0, 0, -6 -6" transform="rotate(0,346,250)"/><rect x="340" y="256" width="12" height="12" transform="rotate(0,346,262)"/><rect x="340" y="268" width="12" height="12" transform="rotate(0,346,274)"/><rect x="340" y="280" width="12" height="12" transform="rotate(0,346,286)"/><path d="M 340 328v 12h 6a 6 6, 0, 0, 0, 0 -12" transform="rotate(-90,346,334)"/><rect x="340" y="340" width="12" height="12" transform="rotate(0,346,346)"/><path d="M 340 388v 12h 12v -6a 6 6, 0, 0, 0, -6 -6" transform="rotate(0,346,394)"/><path d="M 340 400v 12h 12v -6a 6 6, 0, 0, 0, -6 -6" transform="rotate(180,346,406)"/><circle cx="346" cy="430" r="6" transform="rotate(0,346,430)"/><path d="M 340 448v 12h 6a 6 6, 0, 0, 0, 0 -12" transform="rotate(-90,346,454)"/><path d="M 340 460v 12h 6a 6 6, 0, 0, 0, 0 -12" transform="rotate(90,346,466)"/><rect x="352" y="28" width="12" height="12" transform="rotate(0,358,34)"/><path d="M 352 52v 12h 12v -6a 6 6, 0, 0, 0, -6 -6" transform="rotate(0,358,58)"/><path d="M 352 64v 12h 12v -6a 6 6, 0, 0, 0, -6 -6" transform="rotate(180,358,70)"/><path d="M 352 112v 12h 6a 6 6, 0, 0, 0, 0 -12" transform="rotate(-90,358,118)"/><rect x="352" y="124" width="12" height="12" transform="rotate(0,358,130)"/><path d="M 352 136v 12h 12v -6a 6 6, 0, 0, 0, -6 -6" transform="rotate(90,358,142)"/><rect x="352" y="184" width="12" height="12" transform="rotate(0,358,190)"/><rect x="352" y="196" width="12" height="12" transform="rotate(0,358,202)"/><rect x="352" y="208" width="12" height="12" transform="rotate(0,358,214)"/><path d="M 352 220v 12h 6a 6 6, 0, 0, 0, 0 -12" transform="rotate(90,358,226)"/><rect x="352" y="268" width="12" height="12" transform="rotate(0,358,274)"/><rect x="352" y="280" width="12" height="12" transform="rotate(0,358,286)"/><path d="M 352 292v 12h 12v -6a 6 6, 0, 0, 0, -6 -6" transform="rotate(180,358,298)"/><rect x="352" y="340" width="12" height="12" transform="rotate(0,358,346)"/><path d="M 352 364v 12h 12v -6a 6 6, 0, 0, 0, -6 -6" transform="rotate(-90,358,370)"/><path d="M 352 376v 12h 12v -6a 6 6, 0, 0, 0, -6 -6" transform="rotate(180,358,382)"/><rect x="352" y="400" width="12" height="12" transform="rotate(0,358,406)"/><path d="M 364 28v 12h 6a 6 6, 0, 0, 0, 0 -12" transform="rotate(0,370,34)"/><path d="M 364 64v 12h 6a 6 6, 0, 0, 0, 0 -12" transform="rotate(0,370,70)"/><path d="M 364 88v 12h 6a 6 6, 0, 0, 0, 0 -12" transform="rotate(-90,370,94)"/><path d="M 364 100v 12h 6a 6 6, 0, 0, 0, 0 -12" transform="rotate(90,370,106)"/><rect x="364" y="184" width="12" height="12" transform="rotate(0,370,190)"/><path d="M 364 256v 12h 12v -6a 6 6, 0, 0, 0, -6 -6" transform="rotate(-90,370,262)"/><rect x="364" y="268" width="12" height="12" transform="rotate(0,370,274)"/><rect x="364" y="292" width="12" height="12" transform="rotate(0,370,298)"/><path d="M 364 328v 12h 6a 6 6, 0, 0, 0, 0 -12" transform="rotate(-90,370,334)"/><path d="M 364 340v 12h 12v -6a 6 6, 0, 0, 0, -6 -6" transform="rotate(90,370,346)"/><rect x="364" y="364" width="12" height="12" transform="rotate(0,370,370)"/><rect x="364" y="376" width="12" height="12" transform="rotate(0,370,382)"/><rect x="364" y="388" width="12" height="12" transform="rotate(0,370,394)"/><rect x="364" y="400" width="12" height="12" transform="rotate(0,370,406)"/><rect x="364" y="412" width="12" height="12" transform="rotate(0,370,418)"/><rect x="364" y="424" width="12" height="12" transform="rotate(0,370,430)"/><rect x="364" y="436" width="12" height="12" transform="rotate(0,370,442)"/><path d="M 364 448v 12h 6a 6 6, 0, 0, 0, 0 -12" transform="rotate(90,370,454)"/><path d="M 376 124v 12h 12v -6a 6 6, 0, 0, 0, -6 -6" transform="rotate(-90,382,130)"/><rect x="376" y="136" width="12" height="12" transform="rotate(0,382,142)"/><path d="M 376 148v 12h 12v -6a 6 6, 0, 0, 0, -6 -6" transform="rotate(180,382,154)"/><rect x="376" y="184" width="12" height="12" transform="rotate(0,382,190)"/><circle cx="382" cy="214" r="6" transform="rotate(0,382,214)"/><path d="M 376 244v 12h 12v -6a 6 6, 0, 0, 0, -6 -6" transform="rotate(-90,382,250)"/><rect x="376" y="256" width="12" height="12" transform="rotate(0,382,262)"/><path d="M 376 268v 12h 12v -6a 6 6, 0, 0, 0, -6 -6" transform="rotate(90,382,274)"/><rect x="376" y="292" width="12" height="12" transform="rotate(0,382,298)"/><path d="M 376 304v 12h 6a 6 6, 0, 0, 0, 0 -12" transform="rotate(90,382,310)"/><rect x="376" y="364" width="12" height="12" transform="rotate(0,382,370)"/><rect x="376" y="412" width="12" height="12" transform="rotate(0,382,418)"/><rect x="388" y="124" width="12" height="12" transform="rotate(0,394,130)"/><rect x="388" y="136" width="12" height="12" transform="rotate(0,394,142)"/><rect x="388" y="148" width="12" height="12" transform="rotate(0,394,154)"/><path d="M 388 160v 12h 6a 6 6, 0, 0, 0, 0 -12" transform="rotate(90,394,166)"/><path d="M 388 184v 12h 12v -6a 6 6, 0, 0, 0, -6 -6" transform="rotate(0,394,190)"/><path d="M 388 196v 12h 6a 6 6, 0, 0, 0, 0 -12" transform="rotate(90,394,202)"/><path d="M 388 220v 12h 6a 6 6, 0, 0, 0, 0 -12" transform="rotate(-90,394,226)"/><rect x="388" y="232" width="12" height="12" transform="rotate(0,394,238)"/><rect x="388" y="244" width="12" height="12" transform="rotate(0,394,250)"/><path d="M 388 292v 12h 6a 6 6, 0, 0, 0, 0 -12" transform="rotate(0,394,298)"/><circle cx="394" cy="334" r="6" transform="rotate(0,394,334)"/><rect x="388" y="364" width="12" height="12" transform="rotate(0,394,370)"/><circle cx="394" cy="394" r="6" transform="rotate(0,394,394)"/><rect x="388" y="412" width="12" height="12" transform="rotate(0,394,418)"/><path d="M 388 424v 12h 6a 6 6, 0, 0, 0, 0 -12" transform="rotate(90,394,430)"/><circle cx="394" cy="466" r="6" transform="rotate(0,394,466)"/><rect x="400" y="124" width="12" height="12" transform="rotate(0,406,130)"/><path d="M 400 148v 12h 6a 6 6, 0, 0, 0, 0 -12" transform="rotate(0,406,154)"/><path d="M 400 232v 12h 12v -6a 6 6, 0, 0, 0, -6 -6" transform="rotate(0,406,238)"/><path d="M 400 244v 12h 12v -6a 6 6, 0, 0, 0, -6 -6" transform="rotate(90,406,250)"/><path d="M 400 268v 12h 6a 6 6, 0, 0, 0, 0 -12" transform="rotate(180,406,274)"/><path d="M 400 316v 12h 6a 6 6, 0, 0, 0, 0 -12" transform="rotate(180,406,322)"/><path d="M 400 340v 12h 6a 6 6, 0, 0, 0, 0 -12" transform="rotate(180,406,346)"/><rect x="400" y="364" width="12" height="12" transform="rotate(0,406,370)"/><rect x="400" y="412" width="12" height="12" transform="rotate(0,406,418)"/><rect x="412" y="124" width="12" height="12" transform="rotate(0,418,130)"/><circle cx="418" cy="226" r="6" transform="rotate(0,418,226)"/><path d="M 412 268v 12h 12v -6a 6 6, 0, 0, 0, -6 -6" transform="rotate(0,418,274)"/><rect x="412" y="280" width="12" height="12" transform="rotate(0,418,286)"/><rect x="412" y="292" width="12" height="12" transform="rotate(0,418,298)"/><rect x="412" y="304" width="12" height="12" transform="rotate(0,418,310)"/><rect x="412" y="316" width="12" height="12" transform="rotate(0,418,322)"/><rect x="412" y="328" width="12" height="12" transform="rotate(0,418,334)"/><rect x="412" y="340" width="12" height="12" transform="rotate(0,418,346)"/><rect x="412" y="352" width="12" height="12" transform="rotate(0,418,358)"/><rect x="412" y="364" width="12" height="12" transform="rotate(0,418,370)"/><rect x="412" y="376" width="12" height="12" transform="rotate(0,418,382)"/><rect x="412" y="388" width="12" height="12" transform="rotate(0,418,394)"/><rect x="412" y="400" width="12" height="12" transform="rotate(0,418,406)"/><rect x="412" y="412" width="12" height="12" transform="rotate(0,418,418)"/><path d="M 412 436v 12h 6a 6 6, 0, 0, 0, 0 -12" transform="rotate(180,418,442)"/><circle cx="418" cy="466" r="6" transform="rotate(0,418,466)"/><rect x="424" y="124" width="12" height="12" transform="rotate(0,430,130)"/><rect x="424" y="136" width="12" height="12" transform="rotate(0,430,142)"/><rect x="424" y="148" width="12" height="12" transform="rotate(0,430,154)"/><path d="M 424 160v 12h 6a 6 6, 0, 0, 0, 0 -12" transform="rotate(90,430,166)"/><path d="M 424 196v 12h 6a 6 6, 0, 0, 0, 0 -12" transform="rotate(-90,430,202)"/><path d="M 424 208v 12h 12v -6a 6 6, 0, 0, 0, -6 -6" transform="rotate(180,430,214)"/><path d="M 424 232v 12h 6a 6 6, 0, 0, 0, 0 -12" transform="rotate(180,430,238)"/><path d="M 424 280v 12h 6a 6 6, 0, 0, 0, 0 -12" transform="rotate(0,430,286)"/><path d="M 424 328v 12h 12v -6a 6 6, 0, 0, 0, -6 -6" transform="rotate(0,430,334)"/><path d="M 424 340v 12h 12v -6a 6 6, 0, 0, 0, -6 -6" transform="rotate(90,430,346)"/><path d="M 424 364v 12h 6a 6 6, 0, 0, 0, 0 -12" transform="rotate(0,430,370)"/><path d="M 424 388v 12h 6a 6 6, 0, 0, 0, 0 -12" transform="rotate(0,430,394)"/><path d="M 424 412v 12h 6a 6 6, 0, 0, 0, 0 -12" transform="rotate(0,430,418)"/><rect x="424" y="436" width="12" height="12" transform="rotate(0,430,442)"/><path d="M 424 448v 12h 6a 6 6, 0, 0, 0, 0 -12" transform="rotate(90,430,454)"/><rect x="436" y="124" width="12" height="12" transform="rotate(0,442,130)"/><rect x="436" y="136" width="12" height="12" transform="rotate(0,442,142)"/><path d="M 436 172v 12h 6a 6 6, 0, 0, 0, 0 -12" transform="rotate(180,442,178)"/><rect x="436" y="208" width="12" height="12" transform="rotate(0,442,214)"/><rect x="436" y="232" width="12" height="12" transform="rotate(0,442,238)"/><circle cx="442" cy="274" r="6" transform="rotate(0,442,274)"/><path d="M 436 304v 12h 12v -6a 6 6, 0, 0, 0, -6 -6" transform="rotate(-90,442,310)"/><path d="M 436 316v 12h 6a 6 6, 0, 0, 0, 0 -12" transform="rotate(90,442,322)"/><path d="M 436 352v 12h 6a 6 6, 0, 0, 0, 0 -12" transform="rotate(180,442,358)"/><circle cx="442" cy="382" r="6" transform="rotate(0,442,382)"/><circle cx="442" cy="406" r="6" transform="rotate(0,442,406)"/><path d="M 436 436v 12h 6a 6 6, 0, 0, 0, 0 -12" transform="rotate(0,442,442)"/><path d="M 436 460v 12h 6a 6 6, 0, 0, 0, 0 -12" transform="rotate(180,442,466)"/><path d="M 448 124v 12h 12v -6a 6 6, 0, 0, 0, -6 -6" transform="rotate(0,454,130)"/><rect x="448" y="136" width="12" height="12" transform="rotate(0,454,142)"/><path d="M 448 148v 12h 12v -6a 6 6, 0, 0, 0, -6 -6" transform="rotate(180,454,154)"/><rect x="448" y="172" width="12" height="12" transform="rotate(0,454,178)"/><path d="M 448 184v 12h 12v -6a 6 6, 0, 0, 0, -6 -6" transform="rotate(180,454,190)"/><rect x="448" y="208" width="12" height="12" transform="rotate(0,454,214)"/><rect x="448" y="220" width="12" height="12" transform="rotate(0,454,226)"/><rect x="448" y="232" width="12" height="12" transform="rotate(0,454,238)"/><path d="M 448 244v 12h 6a 6 6, 0, 0, 0, 0 -12" transform="rotate(90,454,250)"/><circle cx="454" cy="286" r="6" transform="rotate(0,454,286)"/><rect x="448" y="304" width="12" height="12" transform="rotate(0,454,310)"/><path d="M 448 340v 12h 12v -6a 6 6, 0, 0, 0, -6 -6" transform="rotate(-90,454,346)"/><rect x="448" y="352" width="12" height="12" transform="rotate(0,454,358)"/><path d="M 448 364v 12h 6a 6 6, 0, 0, 0, 0 -12" transform="rotate(90,454,370)"/><path d="M 448 388v 12h 6a 6 6, 0, 0, 0, 0 -12" transform="rotate(180,454,394)"/><circle cx="454" cy="418" r="6" transform="rotate(0,454,418)"/><rect x="448" y="460" width="12" height="12" transform="rotate(0,454,466)"/><path d="M 460 148v 12h 6a 6 6, 0, 0, 0, 0 -12" transform="rotate(0,466,154)"/><path d="M 460 172v 12h 12v -6a 6 6, 0, 0, 0, -6 -6" transform="rotate(0,466,178)"/><path d="M 460 184v 12h 12v -6a 6 6, 0, 0, 0, -6 -6" transform="rotate(90,466,190)"/><path d="M 460 208v 12h 6a 6 6, 0, 0, 0, 0 -12" transform="rotate(0,466,214)"/><path d="M 460 292v 12h 6a 6 6, 0, 0, 0, 0 -12" transform="rotate(-90,466,298)"/><path d="M 460 304v 12h 12v -6a 6 6, 0, 0, 0, -6 -6" transform="rotate(90,466,310)"/><path d="M 460 328v 12h 6a 6 6, 0, 0, 0, 0 -12" transform="rotate(-90,466,334)"/><path d="M 460 340v 12h 12v -6a 6 6, 0, 0, 0, -6 -6" transform="rotate(90,466,346)"/><path d="M 460 388v 12h 6a 6 6, 0, 0, 0, 0 -12" transform="rotate(0,466,394)"/><path d="M 460 424v 12h 6a 6 6, 0, 0, 0, 0 -12" transform="rotate(-90,466,430)"/><rect x="460" y="436" width="12" height="12" transform="rotate(0,466,442)"/><rect x="460" y="448" width="12" height="12" transform="rotate(0,466,454)"/><path d="M 460 460v 12h 12v -6a 6 6, 0, 0, 0, -6 -6" transform="rotate(90,466,466)"/></clipPath><clipPath id="clip-path-corners-square-color-0-0"><path clip-rule="evenodd" d="M 70 28a 42 42 0 1 0 0.1 0zm 0 12a 30 30 0 1 1 -0.1 0Z" transform="rotate(0,70,70)"/></clipPath><clipPath id="clip-path-corners-dot-color-0-0"><circle cx="70" cy="70" r="18" transform="rotate(0,70,70)"/></clipPath><clipPath id="clip-path-corners-square-color-1-0"><path clip-rule="evenodd" d="M 430 28a 42 42 0 1 0 0.1 0zm 0 12a 30 30 0 1 1 -0.1 0Z" transform="rotate(90,430,70)"/></clipPath><clipPath id="clip-path-corners-dot-color-1-0"><circle cx="430" cy="70" r="18" transform="rotate(90,430,70)"/></clipPath><clipPath id="clip-path-corners-square-color-0-1"><path clip-rule="evenodd" d="M 70 388a 42 42 0 1 0 0.1 0zm 0 12a 30 30 0 1 1 -0.1 0Z" transform="rotate(-90,70,430)"/></clipPath><clipPath id="clip-path-corners-dot-color-0-1"><circle cx="70" cy="430" r="18" transform="rotate(-90,70,430)"/></clipPath></defs><rect x="0" y="0" height="500" width="500" clip-path="url('#clip-path-background-color')" fill="#fff"/><rect x="0" y="0" height="500" width="500" clip-path="url('#clip-path-dot-color')" fill="#000000"/><rect x="28" y="28" height="84" width="84" clip-path="url('#clip-path-corners-square-color-0-0')" fill="#000000"/><rect x="52" y="52" height="36" width="36" clip-path="url('#clip-path-corners-dot-color-0-0')" fill="#000000"/><rect x="388" y="28" height="84" width="84" clip-path="url('#clip-path-corners-square-color-1-0')" fill="#000000"/><rect x="412" y="52" height="36" width="36" clip-path="url('#clip-path-corners-dot-color-1-0')" fill="#000000"/><rect x="28" y="388" height="84" width="84" clip-path="url('#clip-path-corners-square-color-0-1')" fill="#000000"/><rect x="52" y="412" height="36" width="36" clip-path="url('#clip-path-corners-dot-color-0-1')" fill="#000000"/></svg>